<mxfile host="app.diagrams.net" modified="2022-08-21T09:36:46.280Z" agent="5.0 (Windows NT 10.0; Win64; x64) AppleWebKit/537.36 (KHTML, like Gecko) Chrome/104.0.0.0 Safari/537.36" etag="7JHHUl_2ohvXc1eUsreP" version="20.2.5" type="github">
  <diagram id="WF_MYyC285SqqOINv5_H" name="Page-1">
    <mxGraphModel dx="1038" dy="571" grid="1" gridSize="10" guides="1" tooltips="1" connect="1" arrows="1" fold="1" page="1" pageScale="1" pageWidth="850" pageHeight="1100" math="0" shadow="0">
      <root>
        <mxCell id="0" />
        <mxCell id="1" parent="0" />
        <mxCell id="cMcfpRcbYdyl4qeZcQNI-1" value="&lt;h1&gt;Horizontal&lt;/h1&gt;" style="text;html=1;strokeColor=none;fillColor=none;spacing=5;spacingTop=-20;whiteSpace=wrap;overflow=hidden;rounded=0;" vertex="1" parent="1">
          <mxGeometry x="160" y="70" width="190" height="40" as="geometry" />
        </mxCell>
        <mxCell id="cMcfpRcbYdyl4qeZcQNI-2" value="&lt;h1&gt;Vertical&lt;/h1&gt;" style="text;html=1;strokeColor=none;fillColor=none;spacing=5;spacingTop=-20;whiteSpace=wrap;overflow=hidden;rounded=0;" vertex="1" parent="1">
          <mxGeometry x="520" y="70" width="190" height="40" as="geometry" />
        </mxCell>
        <mxCell id="cMcfpRcbYdyl4qeZcQNI-4" value="" style="endArrow=none;html=1;rounded=0;" edge="1" parent="1">
          <mxGeometry width="50" height="50" relative="1" as="geometry">
            <mxPoint x="160" y="130" as="sourcePoint" />
            <mxPoint x="640" y="130" as="targetPoint" />
          </mxGeometry>
        </mxCell>
        <mxCell id="cMcfpRcbYdyl4qeZcQNI-5" value="" style="endArrow=none;html=1;rounded=0;" edge="1" parent="1">
          <mxGeometry width="50" height="50" relative="1" as="geometry">
            <mxPoint x="400" y="560" as="sourcePoint" />
            <mxPoint x="400" y="80" as="targetPoint" />
          </mxGeometry>
        </mxCell>
        <mxCell id="cMcfpRcbYdyl4qeZcQNI-7" value="" style="whiteSpace=wrap;html=1;aspect=fixed;" vertex="1" parent="1">
          <mxGeometry x="160" y="150" width="40" height="40" as="geometry" />
        </mxCell>
        <mxCell id="cMcfpRcbYdyl4qeZcQNI-8" value="" style="whiteSpace=wrap;html=1;aspect=fixed;" vertex="1" parent="1">
          <mxGeometry x="220" y="150" width="40" height="40" as="geometry" />
        </mxCell>
        <mxCell id="cMcfpRcbYdyl4qeZcQNI-9" value="" style="whiteSpace=wrap;html=1;aspect=fixed;" vertex="1" parent="1">
          <mxGeometry x="280" y="150" width="40" height="40" as="geometry" />
        </mxCell>
        <mxCell id="cMcfpRcbYdyl4qeZcQNI-10" value="" style="whiteSpace=wrap;html=1;aspect=fixed;" vertex="1" parent="1">
          <mxGeometry x="340" y="150" width="40" height="40" as="geometry" />
        </mxCell>
        <mxCell id="cMcfpRcbYdyl4qeZcQNI-11" value="Big Machine" style="whiteSpace=wrap;html=1;aspect=fixed;" vertex="1" parent="1">
          <mxGeometry x="490" y="150" width="110" height="110" as="geometry" />
        </mxCell>
        <mxCell id="cMcfpRcbYdyl4qeZcQNI-12" value="More Machines" style="text;html=1;align=center;verticalAlign=middle;resizable=0;points=[];autosize=1;strokeColor=none;fillColor=none;" vertex="1" parent="1">
          <mxGeometry x="175" y="205" width="110" height="30" as="geometry" />
        </mxCell>
        <mxCell id="cMcfpRcbYdyl4qeZcQNI-13" value="1. Load Balancing Required" style="text;html=1;align=center;verticalAlign=middle;resizable=0;points=[];autosize=1;strokeColor=none;fillColor=none;" vertex="1" parent="1">
          <mxGeometry x="120" y="280" width="170" height="30" as="geometry" />
        </mxCell>
        <mxCell id="cMcfpRcbYdyl4qeZcQNI-14" value="1. Load Balancing not Required" style="text;html=1;align=center;verticalAlign=middle;resizable=0;points=[];autosize=1;strokeColor=none;fillColor=none;" vertex="1" parent="1">
          <mxGeometry x="440" y="280" width="190" height="30" as="geometry" />
        </mxCell>
        <mxCell id="cMcfpRcbYdyl4qeZcQNI-15" value="3. More Network Calls" style="text;html=1;align=center;verticalAlign=middle;resizable=0;points=[];autosize=1;strokeColor=none;fillColor=none;" vertex="1" parent="1">
          <mxGeometry x="120" y="360" width="140" height="30" as="geometry" />
        </mxCell>
        <mxCell id="cMcfpRcbYdyl4qeZcQNI-16" value="3. No network calls. Inter Process Communication." style="text;html=1;align=center;verticalAlign=middle;resizable=0;points=[];autosize=1;strokeColor=none;fillColor=none;" vertex="1" parent="1">
          <mxGeometry x="440" y="360" width="290" height="30" as="geometry" />
        </mxCell>
        <mxCell id="cMcfpRcbYdyl4qeZcQNI-17" value="2. No Single Point of Failure i.e. Resilient" style="text;html=1;align=center;verticalAlign=middle;resizable=0;points=[];autosize=1;strokeColor=none;fillColor=none;" vertex="1" parent="1">
          <mxGeometry x="120" y="320" width="240" height="30" as="geometry" />
        </mxCell>
        <mxCell id="cMcfpRcbYdyl4qeZcQNI-18" value="2. Single Point of Failure" style="text;html=1;align=center;verticalAlign=middle;resizable=0;points=[];autosize=1;strokeColor=none;fillColor=none;" vertex="1" parent="1">
          <mxGeometry x="440" y="320" width="150" height="30" as="geometry" />
        </mxCell>
        <mxCell id="cMcfpRcbYdyl4qeZcQNI-19" value="4. Data can be Inconsistent" style="text;html=1;align=center;verticalAlign=middle;resizable=0;points=[];autosize=1;strokeColor=none;fillColor=none;" vertex="1" parent="1">
          <mxGeometry x="120" y="400" width="170" height="30" as="geometry" />
        </mxCell>
        <mxCell id="cMcfpRcbYdyl4qeZcQNI-20" value="4. Data is Consistent" style="text;html=1;align=center;verticalAlign=middle;resizable=0;points=[];autosize=1;strokeColor=none;fillColor=none;" vertex="1" parent="1">
          <mxGeometry x="440" y="400" width="130" height="30" as="geometry" />
        </mxCell>
        <mxCell id="cMcfpRcbYdyl4qeZcQNI-21" value="5. Scales well if users increase" style="text;html=1;align=center;verticalAlign=middle;resizable=0;points=[];autosize=1;strokeColor=none;fillColor=none;" vertex="1" parent="1">
          <mxGeometry x="120" y="440" width="190" height="30" as="geometry" />
        </mxCell>
        <mxCell id="cMcfpRcbYdyl4qeZcQNI-22" value="5. There is a Hardware Limit" style="text;html=1;align=center;verticalAlign=middle;resizable=0;points=[];autosize=1;strokeColor=none;fillColor=none;" vertex="1" parent="1">
          <mxGeometry x="440" y="440" width="170" height="30" as="geometry" />
        </mxCell>
      </root>
    </mxGraphModel>
  </diagram>
</mxfile>
